<svg xmlns="http://www.w3.org/2000/svg" viewBox="0 0 400 400" width="400" height="400">
  <defs>
    <clipPath id="c"><circle cx="200" cy="200" r="200"/></clipPath>
  </defs>
  <circle cx="200" cy="200" r="200" fill="#0e0e0d"/>
  <g clip-path="url(#c)" transform="translate(100,70) scale(1)" fill="#d4ad6a">
    <path d="M68 115 C62 52, 48 6, 58 2 C70-4, 84 8, 90 22 C98 42, 96 82, 92 115" opacity=".85"/>
    <path d="M120 110 C118 44, 126 0, 138-2 C150-4, 152 14, 148 30 C142 54, 132 84, 126 110" opacity=".85"/>
    <ellipse cx="100" cy="178" rx="76" ry="72" opacity=".9"/>
    <ellipse cx="100" cy="183" rx="64" ry="60" fill="#0e0e0d" opacity=".92"/>
    <ellipse cx="78" cy="172" rx="12" ry="14" opacity=".7"/>
    <ellipse cx="78" cy="172" rx="8" ry="10" fill="#0e0e0d"/>
    <ellipse cx="76" cy="168" rx="3" ry="4" opacity=".8"/>
    <circle cx="82" cy="164" r="1.5" opacity=".3"/>
    <ellipse cx="126" cy="170" rx="12" ry="14" opacity=".7"/>
    <ellipse cx="126" cy="170" rx="8" ry="10" fill="#0e0e0d"/>
    <ellipse cx="124" cy="166" rx="3" ry="4" opacity=".8"/>
    <circle cx="130" cy="162" r="1.5" opacity=".3"/>
    <ellipse cx="102" cy="196" rx="4.5" ry="3" opacity=".25"/>
    <path d="M94 201 Q102 209 110 201" stroke="#d4ad6a" stroke-width="1" fill="none" stroke-linecap="round" opacity=".2"/>
  </g>
  <circle cx="200" cy="200" r="198" fill="none" stroke="rgba(212,173,106,0.08)" stroke-width="1"/>
</svg>
